<svg width="30" height="27" viewBox="0 0 30 27" fill="none" xmlns="http://www.w3.org/2000/svg">
<path d="M28.3699 14.2391L23.1875 12.0123C23.0031 11.9331 22.6207 11.8292 22.1888 12.0123L17.0064 14.2391C16.5251 14.447 16.2101 14.9319 16.2101 15.4713C16.2101 20.9938 19.3007 24.814 22.1888 26.0561C22.6207 26.2392 22.9986 26.1353 23.1875 26.0561C25.4953 25.0664 29.1662 21.6322 29.1662 15.4713C29.1662 14.9319 28.8513 14.447 28.3699 14.2391ZM22.6882 23.7056V14.348L26.9843 16.1938C26.7324 20.5039 24.2447 22.894 22.6882 23.7056ZM10.4519 13.4919C13.6324 13.4919 16.2101 10.6564 16.2101 7.15786C16.2101 3.65928 13.6324 0.823799 10.4519 0.823799C7.27139 0.823799 4.69368 3.65928 4.69368 7.15786C4.69368 10.6564 7.27139 13.4919 10.4519 13.4919ZM14.7706 15.4713C14.7706 15.3476 14.8066 15.2338 14.8201 15.115C14.7076 15.1101 14.5996 15.0754 14.4827 15.0754H13.7314C12.7327 15.5802 11.6216 15.8672 10.4519 15.8672C9.28227 15.8672 8.17561 15.5802 7.17242 15.0754H6.42115C3.08317 15.0754 0.375 18.0544 0.375 21.7262V23.7848C0.375 25.0961 1.3422 26.16 2.53434 26.16H18.3695C18.6754 26.16 18.9678 26.0858 19.2332 25.9621C16.804 23.8392 14.7706 20.1872 14.7706 15.4713Z" fill="white"/>
</svg>
