<svg width="43" height="40" viewBox="0 0 43 40" fill="none" xmlns="http://www.w3.org/2000/svg">
<g filter="url(#filter0_d_2437_85)">
<mask id="path-1-inside-1_2437_85" fill="white">
<path fill-rule="evenodd" clip-rule="evenodd" d="M8.37934 1.90931V10.777H19.0923V1.90931H8.37934ZM8.04456 0.959198C7.67477 0.959198 7.375 1.24278 7.375 1.5926V11.0937C7.375 11.4435 7.67477 11.7271 8.04456 11.7271H19.4271C19.7969 11.7271 20.0967 11.4435 20.0967 11.0937V1.5926C20.0967 1.24278 19.7969 0.959198 19.4271 0.959198H8.04456Z"/>
<path fill-rule="evenodd" clip-rule="evenodd" d="M24.4488 1.90931V10.777H35.1618V1.90931H24.4488ZM24.1141 0.959198C23.7443 0.959198 23.4445 1.24278 23.4445 1.5926V11.0937C23.4445 11.4435 23.7443 11.7271 24.1141 11.7271H35.4966C35.8664 11.7271 36.1662 11.4435 36.1662 11.0937V1.5926C36.1662 1.24278 35.8664 0.959198 35.4966 0.959198H24.1141Z"/>
<path fill-rule="evenodd" clip-rule="evenodd" d="M24.4488 16.4776V25.3453H35.1618V16.4776H24.4488ZM24.1141 15.5275C23.7443 15.5275 23.4445 15.8111 23.4445 16.1609V25.662C23.4445 26.0118 23.7443 26.2954 24.1141 26.2954H35.4966C35.8664 26.2954 36.1662 26.0118 36.1662 25.662V16.1609C36.1662 15.8111 35.8664 15.5275 35.4966 15.5275H24.1141Z"/>
<path fill-rule="evenodd" clip-rule="evenodd" d="M8.37934 16.4776V25.3453H19.0923V16.4776H8.37934ZM8.04456 15.5275C7.67477 15.5275 7.375 15.8111 7.375 16.1609V25.662C7.375 26.0118 7.67477 26.2954 8.04456 26.2954H19.4271C19.7969 26.2954 20.0967 26.0118 20.0967 25.662V16.1609C20.0967 15.8111 19.7969 15.5275 19.4271 15.5275H8.04456Z"/>
</mask>
<path fill-rule="evenodd" clip-rule="evenodd" d="M8.37934 1.90931V10.777H19.0923V1.90931H8.37934ZM8.04456 0.959198C7.67477 0.959198 7.375 1.24278 7.375 1.5926V11.0937C7.375 11.4435 7.67477 11.7271 8.04456 11.7271H19.4271C19.7969 11.7271 20.0967 11.4435 20.0967 11.0937V1.5926C20.0967 1.24278 19.7969 0.959198 19.4271 0.959198H8.04456Z" fill="white"/>
<path fill-rule="evenodd" clip-rule="evenodd" d="M24.4488 1.90931V10.777H35.1618V1.90931H24.4488ZM24.1141 0.959198C23.7443 0.959198 23.4445 1.24278 23.4445 1.5926V11.0937C23.4445 11.4435 23.7443 11.7271 24.1141 11.7271H35.4966C35.8664 11.7271 36.1662 11.4435 36.1662 11.0937V1.5926C36.1662 1.24278 35.8664 0.959198 35.4966 0.959198H24.1141Z" fill="white"/>
<path fill-rule="evenodd" clip-rule="evenodd" d="M24.4488 16.4776V25.3453H35.1618V16.4776H24.4488ZM24.1141 15.5275C23.7443 15.5275 23.4445 15.8111 23.4445 16.1609V25.662C23.4445 26.0118 23.7443 26.2954 24.1141 26.2954H35.4966C35.8664 26.2954 36.1662 26.0118 36.1662 25.662V16.1609C36.1662 15.8111 35.8664 15.5275 35.4966 15.5275H24.1141Z" fill="white"/>
<path fill-rule="evenodd" clip-rule="evenodd" d="M8.37934 16.4776V25.3453H19.0923V16.4776H8.37934ZM8.04456 15.5275C7.67477 15.5275 7.375 15.8111 7.375 16.1609V25.662C7.375 26.0118 7.67477 26.2954 8.04456 26.2954H19.4271C19.7969 26.2954 20.0967 26.0118 20.0967 25.662V16.1609C20.0967 15.8111 19.7969 15.5275 19.4271 15.5275H8.04456Z" fill="white"/>
<path d="M8.37934 10.777H1.60495V17.5514H8.37934V10.777ZM8.37934 1.90931V-4.86509H1.60495V1.90931H8.37934ZM19.0923 10.777V17.5514H25.8667V10.777H19.0923ZM19.0923 1.90931H25.8667V-4.86509H19.0923V1.90931ZM24.4488 10.777H17.6744V17.5514H24.4488V10.777ZM24.4488 1.90931V-4.86509H17.6744V1.90931H24.4488ZM35.1618 10.777V17.5514H41.9362V10.777H35.1618ZM35.1618 1.90931H41.9362V-4.86509H35.1618V1.90931ZM24.4488 25.3453H17.6744V32.1197H24.4488V25.3453ZM24.4488 16.4776V9.70325H17.6744V16.4776H24.4488ZM35.1618 25.3453V32.1197H41.9362V25.3453H35.1618ZM35.1618 16.4776H41.9362V9.70325H35.1618V16.4776ZM8.37934 25.3453H1.60495V32.1197H8.37934V25.3453ZM8.37934 16.4776V9.70325H1.60495V16.4776H8.37934ZM19.0923 25.3453V32.1197H25.8667V25.3453H19.0923ZM19.0923 16.4776H25.8667V9.70325H19.0923V16.4776ZM15.1537 10.777V8.56007H1.60495V10.777H15.1537ZM15.1537 4.12623V1.90931H1.60495V4.12623H15.1537ZM8.37934 8.6837H11.0576V-4.86509H8.37934V8.6837ZM16.4141 8.6837H19.0923V-4.86509H16.4141V8.6837ZM12.3179 1.90931V4.12623H25.8667V1.90931H12.3179ZM12.3179 8.56007V10.777H25.8667V8.56007H12.3179ZM19.0923 4.00259H16.4141V17.5514H19.0923V4.00259ZM11.0576 4.00259H8.37934V17.5514H11.0576V4.00259ZM0.600606 1.5926V3.96788H14.1494V1.5926H0.600606ZM0.600606 8.71842V11.0937H14.1494V8.71842H0.600606ZM0.600606 11.0937C0.600606 12.1683 0.834706 13.1995 1.25287 14.1268L13.604 8.55723C13.9534 9.33204 14.1494 10.1954 14.1494 11.0937H0.600606ZM5.37859 18.0104C6.22016 18.3316 7.12286 18.5015 8.04456 18.5015V4.9527C8.78922 4.9527 9.5229 5.09008 10.2098 5.35224L5.37859 18.0104ZM8.04456 18.5015H10.8902V4.9527H8.04456V18.5015ZM16.5815 18.5015H19.4271V4.9527H16.5815V18.5015ZM19.4271 18.5015C20.3488 18.5015 21.2515 18.3316 22.0931 18.0104L17.2619 5.35224C17.9488 5.09008 18.6825 4.9527 19.4271 4.9527V18.5015ZM26.2188 14.1268C26.637 13.1995 26.8711 12.1683 26.8711 11.0937H13.3223C13.3223 10.1953 13.5183 9.33204 13.8677 8.55723L26.2188 14.1268ZM26.8711 11.0937V8.71842H13.3223V11.0937H26.8711ZM26.8711 3.96788V1.5926H13.3223V3.96788H26.8711ZM26.8711 1.5926C26.8711 0.517982 26.637 -0.513195 26.2188 -1.44051L13.8677 4.12907C13.5183 3.35425 13.3223 2.49095 13.3223 1.5926H26.8711ZM22.0931 -5.32412C21.2515 -5.64531 20.3488 -5.8152 19.4271 -5.8152V7.73359C18.6825 7.73359 17.9488 7.59621 17.2619 7.33406L22.0931 -5.32412ZM19.4271 -5.8152H16.5815V7.73359H19.4271V-5.8152ZM10.8902 -5.8152H8.04456V7.73359H10.8902V-5.8152ZM8.04456 -5.8152C7.12286 -5.8152 6.22016 -5.64532 5.3786 -5.32412L10.2098 7.33406C9.5229 7.59621 8.78922 7.73359 8.04456 7.73359V-5.8152ZM1.25287 -1.44051C0.834706 -0.513192 0.600606 0.517984 0.600606 1.5926H14.1494C14.1494 2.49094 13.9534 3.35425 13.604 4.12906L1.25287 -1.44051ZM31.2232 10.777V8.56007H17.6744V10.777H31.2232ZM31.2232 4.12623V1.90931H17.6744V4.12623H31.2232ZM24.4488 8.6837H27.1271V-4.86509H24.4488V8.6837ZM32.4836 8.6837H35.1618V-4.86509H32.4836V8.6837ZM28.3874 1.90931V4.12623H41.9362V1.90931H28.3874ZM28.3874 8.56007V10.777H41.9362V8.56007H28.3874ZM35.1618 4.00259H32.4836V17.5514H35.1618V4.00259ZM27.1271 4.00259H24.4488V17.5514H27.1271V4.00259ZM16.6701 1.5926V3.96788H30.2189V1.5926H16.6701ZM16.6701 8.71842V11.0937H30.2189V8.71842H16.6701ZM16.6701 11.0937C16.6701 12.1683 16.9042 13.1995 17.3224 14.1268L29.6735 8.55724C30.0228 9.33205 30.2189 10.1954 30.2189 11.0937H16.6701ZM21.4481 18.0104C22.2897 18.3316 23.1924 18.5015 24.1141 18.5015V4.9527C24.8587 4.9527 25.5924 5.09008 26.2793 5.35224L21.4481 18.0104ZM24.1141 18.5015H26.9597V4.9527H24.1141V18.5015ZM32.651 18.5015H35.4966V4.9527H32.651V18.5015ZM35.4966 18.5015C36.4183 18.5015 37.321 18.3316 38.1626 18.0104L33.3314 5.35224C34.0183 5.09008 34.752 4.9527 35.4966 4.9527V18.5015ZM42.2883 14.1268C42.7065 13.1995 42.9406 12.1683 42.9406 11.0937H29.3918C29.3918 10.1954 29.5878 9.33206 29.9372 8.55725L42.2883 14.1268ZM42.9406 11.0937V8.71842H29.3918V11.0937H42.9406ZM42.9406 3.96788V1.5926H29.3918V3.96788H42.9406ZM42.9406 1.5926C42.9406 0.517992 42.7065 -0.513179 42.2883 -1.4405L29.9372 4.12905C29.5878 3.35424 29.3918 2.49094 29.3918 1.5926H42.9406ZM38.1626 -5.32412C37.321 -5.64531 36.4183 -5.8152 35.4966 -5.8152V7.73359C34.752 7.73359 34.0183 7.59621 33.3314 7.33405L38.1626 -5.32412ZM35.4966 -5.8152H32.651V7.73359H35.4966V-5.8152ZM26.9597 -5.8152H24.1141V7.73359H26.9597V-5.8152ZM24.1141 -5.8152C23.1924 -5.8152 22.2897 -5.64532 21.4481 -5.32412L26.2793 7.33405C25.5924 7.59621 24.8587 7.73359 24.1141 7.73359V-5.8152ZM17.3224 -1.44051C16.9042 -0.513189 16.6701 0.517986 16.6701 1.5926H30.2189C30.2189 2.49094 30.0228 3.35425 29.6735 4.12906L17.3224 -1.44051ZM31.2232 25.3453V23.1284H17.6744V25.3453H31.2232ZM31.2232 18.6946V16.4776H17.6744V18.6946H31.2232ZM24.4488 23.252H27.1271V9.70325H24.4488V23.252ZM32.4836 23.252H35.1618V9.70325H32.4836V23.252ZM28.3874 16.4776V18.6946H41.9362V16.4776H28.3874ZM28.3874 23.1284V25.3453H41.9362V23.1284H28.3874ZM35.1618 18.5709H32.4836V32.1197H35.1618V18.5709ZM27.1271 18.5709H24.4488V32.1197H27.1271V18.5709ZM16.6701 16.1609V18.5362H30.2189V16.1609H16.6701ZM16.6701 23.2868V25.662H30.2189V23.2868H16.6701ZM16.6701 25.662C16.6701 26.7366 16.9042 27.7678 17.3224 28.6951L29.6735 23.1256C30.0228 23.9004 30.2189 24.7637 30.2189 25.662H16.6701ZM21.4481 32.5787C22.2897 32.8999 23.1923 33.0698 24.1141 33.0698V19.521C24.8587 19.521 25.5924 19.6584 26.2793 19.9206L21.4481 32.5787ZM24.1141 33.0698H26.9597V19.521H24.1141V33.0698ZM32.651 33.0698H35.4966V19.521H32.651V33.0698ZM35.4966 33.0698C36.4183 33.0698 37.321 32.8999 38.1626 32.5787L33.3314 19.9206C34.0183 19.6584 34.7519 19.521 35.4966 19.521V33.0698ZM42.2883 28.6951C42.7065 27.7678 42.9406 26.7366 42.9406 25.662H29.3918C29.3918 24.7637 29.5878 23.9004 29.9372 23.1256L42.2883 28.6951ZM42.9406 25.662V23.2868H29.3918V25.662H42.9406ZM42.9406 18.5362V16.1609H29.3918V18.5362H42.9406ZM42.9406 16.1609C42.9406 15.0863 42.7065 14.0552 42.2883 13.1278L29.9372 18.6974C29.5878 17.9226 29.3918 17.0593 29.3918 16.1609H42.9406ZM38.1626 9.24422C37.321 8.92302 36.4183 8.75314 35.4966 8.75314V22.3019C34.752 22.3019 34.0183 22.1645 33.3314 21.9024L38.1626 9.24422ZM35.4966 8.75314H32.651V22.3019H35.4966V8.75314ZM26.9597 8.75314H24.1141V22.3019H26.9597V8.75314ZM24.1141 8.75314C23.1924 8.75314 22.2897 8.92302 21.4481 9.24421L26.2793 21.9024C25.5924 22.1645 24.8587 22.3019 24.1141 22.3019V8.75314ZM17.3224 13.1278C16.9042 14.0551 16.6701 15.0863 16.6701 16.1609H30.2189C30.2189 17.0593 30.0228 17.9226 29.6735 18.6974L17.3224 13.1278ZM15.1537 25.3453V23.1284H1.60495V25.3453H15.1537ZM15.1537 18.6946V16.4776H1.60495V18.6946H15.1537ZM8.37934 23.252H11.0576V9.70325H8.37934V23.252ZM16.4141 23.252H19.0923V9.70325H16.4141V23.252ZM12.3179 16.4776V18.6946H25.8667V16.4776H12.3179ZM12.3179 23.1284V25.3453H25.8667V23.1284H12.3179ZM19.0923 18.5709H16.4141V32.1197H19.0923V18.5709ZM11.0576 18.5709H8.37934V32.1197H11.0576V18.5709ZM0.600606 16.1609V18.5362H14.1494V16.1609H0.600606ZM0.600606 23.2868V25.662H14.1494V23.2868H0.600606ZM0.600606 25.662C0.600606 26.7366 0.834706 27.7678 1.25287 28.6951L13.604 23.1256C13.9534 23.9004 14.1494 24.7637 14.1494 25.662H0.600606ZM5.37859 32.5787C6.22016 32.8999 7.12285 33.0698 8.04456 33.0698V19.521C8.78923 19.521 9.5229 19.6584 10.2098 19.9206L5.37859 32.5787ZM8.04456 33.0698H10.8902V19.521H8.04456V33.0698ZM16.5815 33.0698H19.4271V19.521H16.5815V33.0698ZM19.4271 33.0698C20.3488 33.0698 21.2515 32.8999 22.0931 32.5787L17.2619 19.9206C17.9488 19.6584 18.6825 19.521 19.4271 19.521V33.0698ZM26.2188 28.6951C26.637 27.7678 26.8711 26.7366 26.8711 25.662H13.3223C13.3223 24.7637 13.5183 23.9004 13.8677 23.1256L26.2188 28.6951ZM26.8711 25.662V23.2868H13.3223V25.662H26.8711ZM26.8711 18.5362V16.1609H13.3223V18.5362H26.8711ZM26.8711 16.1609C26.8711 15.0863 26.637 14.0551 26.2188 13.1278L13.8677 18.6974C13.5183 17.9226 13.3223 17.0593 13.3223 16.1609H26.8711ZM22.0931 9.24421C21.2515 8.92302 20.3488 8.75314 19.4271 8.75314V22.3019C18.6825 22.3019 17.9488 22.1645 17.2619 21.9024L22.0931 9.24421ZM19.4271 8.75314H16.5815V22.3019H19.4271V8.75314ZM10.8902 8.75314H8.04456V22.3019H10.8902V8.75314ZM8.04456 8.75314C7.12286 8.75314 6.22017 8.92302 5.3786 9.24421L10.2098 21.9024C9.52289 22.1645 8.78922 22.3019 8.04456 22.3019V8.75314ZM1.25287 13.1278C0.834706 14.0551 0.600606 15.0863 0.600606 16.1609H14.1494C14.1494 17.0593 13.9534 17.9226 13.604 18.6974L1.25287 13.1278ZM8.37934 10.777H-5.16944V24.3258H8.37934V10.777ZM8.37934 1.90931V-11.6395H-5.16944V1.90931H8.37934ZM19.0923 10.777V24.3258H32.6411V10.777H19.0923ZM19.0923 1.90931H32.6411V-11.6395H19.0923V1.90931ZM24.4488 10.777H10.9V24.3258H24.4488V10.777ZM24.4488 1.90931V-11.6395H10.9V1.90931H24.4488ZM35.1618 10.777V24.3258H48.7106V10.777H35.1618ZM35.1618 1.90931H48.7106V-11.6395H35.1618V1.90931ZM24.4488 25.3453H10.9V38.8941H24.4488V25.3453ZM24.4488 16.4776V2.92885H10.9V16.4776H24.4488ZM35.1618 25.3453V38.8941H48.7106V25.3453H35.1618ZM35.1618 16.4776H48.7106V2.92885H35.1618V16.4776ZM8.37934 25.3453H-5.16944V38.8941H8.37934V25.3453ZM8.37934 16.4776V2.92885H-5.16944V16.4776H8.37934ZM19.0923 25.3453V38.8941H32.6411V25.3453H19.0923ZM19.0923 16.4776H32.6411V2.92885H19.0923V16.4776ZM21.9281 10.777V8.56007H-5.16944V10.777H21.9281ZM21.9281 4.12623V1.90931H-5.16944V4.12623H21.9281ZM8.37934 15.4581H11.0576V-11.6395H8.37934V15.4581ZM16.4141 15.4581H19.0923V-11.6395H16.4141V15.4581ZM5.54355 1.90931V4.12623H32.6411V1.90931H5.54355ZM5.54355 8.56007V10.777H32.6411V8.56007H5.54355ZM19.0923 -2.7718H16.4141V24.3258H19.0923V-2.7718ZM11.0576 -2.7718H8.37934V24.3258H11.0576V-2.7718ZM-6.17379 1.5926V3.96788H20.9238V1.5926H-6.17379ZM-6.17379 8.71842V11.0937H20.9238V8.71842H-6.17379ZM-6.17379 11.0937C-6.17379 13.1548 -5.72462 15.1332 -4.92268 16.9116L19.7795 5.77245C20.5127 7.39832 20.9238 9.20887 20.9238 11.0937H-6.17379ZM2.963 24.3395C4.56879 24.9524 6.28967 25.2759 8.04456 25.2759V-1.82169C9.62241 -1.82169 11.1743 -1.53068 12.6254 -0.976844L2.963 24.3395ZM8.04456 25.2759H10.8902V-1.82169H8.04456V25.2759ZM16.5815 25.2759H19.4271V-1.82169H16.5815V25.2759ZM19.4271 25.2759C21.182 25.2759 22.9029 24.9524 24.5087 24.3395L14.8463 -0.976844C16.2974 -1.53068 17.8493 -1.82169 19.4271 -1.82169V25.2759ZM32.3944 16.9116C33.1963 15.1332 33.6455 13.1548 33.6455 11.0937H6.54789C6.54789 9.20886 6.95901 7.39831 7.69218 5.77244L32.3944 16.9116ZM33.6455 11.0937V8.71842H6.54789V11.0937H33.6455ZM33.6455 3.96788V1.5926H6.54789V3.96788H33.6455ZM33.6455 1.5926C33.6455 -0.4685 33.1963 -2.44692 32.3944 -4.2253L7.69218 6.91386C6.95901 5.28798 6.54789 3.47743 6.54789 1.5926H33.6455ZM24.5087 -11.6532C22.9029 -12.2661 21.182 -12.5896 19.4271 -12.5896V14.508C17.8493 14.508 16.2974 14.217 14.8463 13.6631L24.5087 -11.6532ZM19.4271 -12.5896H16.5815V14.508H19.4271V-12.5896ZM10.8902 -12.5896H8.04456V14.508H10.8902V-12.5896ZM8.04456 -12.5896C6.28968 -12.5896 4.5688 -12.2661 2.963 -11.6532L12.6254 13.6631C11.1743 14.217 9.6224 14.508 8.04456 14.508V-12.5896ZM-4.92268 -4.2253C-5.72462 -2.44691 -6.17379 -0.468496 -6.17379 1.5926H20.9238C20.9238 3.47742 20.5127 5.28797 19.7795 6.91385L-4.92268 -4.2253ZM37.9976 10.777V8.56007H10.9V10.777H37.9976ZM37.9976 4.12623V1.90931H10.9V4.12623H37.9976ZM24.4488 15.4581H27.1271V-11.6395H24.4488V15.4581ZM32.4836 15.4581H35.1618V-11.6395H32.4836V15.4581ZM21.613 1.90931V4.12623H48.7106V1.90931H21.613ZM21.613 8.56007V10.777H48.7106V8.56007H21.613ZM35.1618 -2.7718H32.4836V24.3258H35.1618V-2.7718ZM27.1271 -2.7718H24.4488V24.3258H27.1271V-2.7718ZM9.89571 1.5926V3.96788H36.9933V1.5926H9.89571ZM9.89571 8.71842V11.0937H36.9933V8.71842H9.89571ZM9.89571 11.0937C9.89571 13.1548 10.3449 15.1332 11.1468 16.9116L35.849 5.77245C36.5822 7.39833 36.9933 9.20887 36.9933 11.0937H9.89571ZM19.0325 24.3395C20.6383 24.9524 22.3592 25.2759 24.1141 25.2759V-1.82169C25.6919 -1.82169 27.2438 -1.53068 28.6949 -0.976844L19.0325 24.3395ZM24.1141 25.2759H26.9597V-1.82169H24.1141V25.2759ZM32.651 25.2759H35.4966V-1.82169H32.651V25.2759ZM35.4966 25.2759C37.2515 25.2759 38.9724 24.9524 40.5782 24.3395L30.9158 -0.97684C32.3669 -1.53068 33.9188 -1.82169 35.4966 -1.82169V25.2759ZM48.4639 16.9116C49.2658 15.1332 49.715 13.1548 49.715 11.0937H22.6174C22.6174 9.20888 23.0285 7.39834 23.7617 5.77247L48.4639 16.9116ZM49.715 11.0937V8.71842H22.6174V11.0937H49.715ZM49.715 3.96788V1.5926H22.6174V3.96788H49.715ZM49.715 1.5926C49.715 -0.46848 49.2658 -2.44689 48.4639 -4.22527L23.7617 6.91382C23.0285 5.28795 22.6174 3.47741 22.6174 1.5926H49.715ZM40.5782 -11.6532C38.9724 -12.2661 37.2515 -12.5896 35.4966 -12.5896V14.508C33.9188 14.508 32.3669 14.217 30.9158 13.6631L40.5782 -11.6532ZM35.4966 -12.5896H32.651V14.508H35.4966V-12.5896ZM26.9597 -12.5896H24.1141V14.508H26.9597V-12.5896ZM24.1141 -12.5896C22.3592 -12.5896 20.6383 -12.2661 19.0325 -11.6532L28.6949 13.6631C27.2438 14.217 25.6919 14.508 24.1141 14.508V-12.5896ZM11.1468 -4.22529C10.3449 -2.44691 9.89571 -0.468492 9.89571 1.5926H36.9933C36.9933 3.47742 36.5822 5.28797 35.849 6.91384L11.1468 -4.22529ZM37.9976 25.3453V23.1284H10.9V25.3453H37.9976ZM37.9976 18.6946V16.4776H10.9V18.6946H37.9976ZM24.4488 30.0264H27.1271V2.92885H24.4488V30.0264ZM32.4836 30.0264H35.1618V2.92885H32.4836V30.0264ZM21.613 16.4776V18.6946H48.7106V16.4776H21.613ZM21.613 23.1284V25.3453H48.7106V23.1284H21.613ZM35.1618 11.7965H32.4836V38.8941H35.1618V11.7965ZM27.1271 11.7965H24.4488V38.8941H27.1271V11.7965ZM9.89571 16.1609V18.5362H36.9933V16.1609H9.89571ZM9.89571 23.2868V25.662H36.9933V23.2868H9.89571ZM9.89571 25.662C9.89571 27.7231 10.3449 29.7015 11.1468 31.4799L35.849 20.3408C36.5822 21.9667 36.9933 23.7772 36.9933 25.662H9.89571ZM19.0325 38.9078C20.6383 39.5207 22.3592 39.8442 24.1141 39.8442V12.7466C25.6919 12.7466 27.2438 13.0377 28.6949 13.5915L19.0325 38.9078ZM24.1141 39.8442H26.9597V12.7466H24.1141V39.8442ZM32.651 39.8442H35.4966V12.7466H32.651V39.8442ZM35.4966 39.8442C37.2515 39.8442 38.9724 39.5207 40.5782 38.9078L30.9158 13.5915C32.3669 13.0377 33.9188 12.7466 35.4966 12.7466V39.8442ZM48.4639 31.4799C49.2658 29.7015 49.715 27.7231 49.715 25.662H22.6174C22.6174 23.7772 23.0285 21.9667 23.7617 20.3408L48.4639 31.4799ZM49.715 25.662V23.2868H22.6174V25.662H49.715ZM49.715 18.5362V16.1609H22.6174V18.5362H49.715ZM49.715 16.1609C49.715 14.0999 49.2658 12.1214 48.4639 10.3431L23.7617 21.4822C23.0285 19.8563 22.6174 18.0457 22.6174 16.1609H49.715ZM40.5782 2.91513C38.9724 2.30225 37.2515 1.97874 35.4966 1.97874V29.0763C33.9188 29.0763 32.3669 28.7853 30.9158 28.2315L40.5782 2.91513ZM35.4966 1.97874H32.651V29.0763H35.4966V1.97874ZM26.9597 1.97874H24.1141V29.0763H26.9597V1.97874ZM24.1141 1.97874C22.3592 1.97874 20.6383 2.30225 19.0325 2.91513L28.6949 28.2315C27.2438 28.7853 25.6919 29.0763 24.1141 29.0763V1.97874ZM11.1468 10.343C10.3449 12.1214 9.89571 14.0998 9.89571 16.1609H36.9933C36.9933 18.0458 36.5822 19.8563 35.849 21.4822L11.1468 10.343ZM21.9281 25.3453V23.1284H-5.16944V25.3453H21.9281ZM21.9281 18.6946V16.4776H-5.16944V18.6946H21.9281ZM8.37934 30.0264H11.0576V2.92885H8.37934V30.0264ZM16.4141 30.0264H19.0923V2.92885H16.4141V30.0264ZM5.54355 16.4776V18.6946H32.6411V16.4776H5.54355ZM5.54355 23.1284V25.3453H32.6411V23.1284H5.54355ZM19.0923 11.7965H16.4141V38.8941H19.0923V11.7965ZM11.0576 11.7965H8.37934V38.8941H11.0576V11.7965ZM-6.17379 16.1609V18.5362H20.9238V16.1609H-6.17379ZM-6.17379 23.2868V25.662H20.9238V23.2868H-6.17379ZM-6.17379 25.662C-6.17379 27.7231 -5.72462 29.7015 -4.92268 31.4799L19.7795 20.3408C20.5127 21.9667 20.9238 23.7772 20.9238 25.662H-6.17379ZM2.96299 38.9078C4.56878 39.5207 6.28967 39.8442 8.04456 39.8442V12.7466C9.62241 12.7466 11.1743 13.0377 12.6254 13.5915L2.96299 38.9078ZM8.04456 39.8442H10.8902V12.7466H8.04456V39.8442ZM16.5815 39.8442H19.4271V12.7466H16.5815V39.8442ZM19.4271 39.8442C21.182 39.8442 22.9029 39.5207 24.5087 38.9078L14.8463 13.5915C16.2974 13.0377 17.8493 12.7466 19.4271 12.7466V39.8442ZM32.3944 31.4799C33.1963 29.7015 33.6455 27.7231 33.6455 25.662H6.54789C6.54789 23.7772 6.95901 21.9666 7.69217 20.3408L32.3944 31.4799ZM33.6455 25.662V23.2868H6.54789V25.662H33.6455ZM33.6455 18.5362V16.1609H6.54789V18.5362H33.6455ZM33.6455 16.1609C33.6455 14.0998 33.1963 12.1214 32.3944 10.343L7.69218 21.4822C6.95901 19.8563 6.54789 18.0458 6.54789 16.1609H33.6455ZM24.5087 2.91513C22.9029 2.30225 21.182 1.97874 19.4271 1.97874V29.0763C17.8493 29.0763 16.2974 28.7853 14.8463 28.2315L24.5087 2.91513ZM19.4271 1.97874H16.5815V29.0763H19.4271V1.97874ZM10.8902 1.97874H8.04456V29.0763H10.8902V1.97874ZM8.04456 1.97874C6.28968 1.97874 4.5688 2.30225 2.96301 2.91513L12.6254 28.2315C11.1743 28.7853 9.6224 29.0763 8.04456 29.0763V1.97874ZM-4.92268 10.343C-5.72462 12.1214 -6.17379 14.0998 -6.17379 16.1609H20.9238C20.9238 18.0458 20.5127 19.8563 19.7795 21.4822L-4.92268 10.343Z" fill="white" mask="url(#path-1-inside-1_2437_85)"/>
</g>
<defs>
<filter id="filter0_d_2437_85" x="0.600606" y="0.959198" width="42.3398" height="38.885" filterUnits="userSpaceOnUse" color-interpolation-filters="sRGB">
<feFlood flood-opacity="0" result="BackgroundImageFix"/>
<feColorMatrix in="SourceAlpha" type="matrix" values="0 0 0 0 0 0 0 0 0 0 0 0 0 0 0 0 0 0 127 0" result="hardAlpha"/>
<feOffset dy="6.77439"/>
<feGaussianBlur stdDeviation="3.3872"/>
<feComposite in2="hardAlpha" operator="out"/>
<feColorMatrix type="matrix" values="0 0 0 0 0 0 0 0 0 0 0 0 0 0 0 0 0 0 0.25 0"/>
<feBlend mode="normal" in2="BackgroundImageFix" result="effect1_dropShadow_2437_85"/>
<feBlend mode="normal" in="SourceGraphic" in2="effect1_dropShadow_2437_85" result="shape"/>
</filter>
</defs>
</svg>
