<svg width="42" height="42" viewBox="0 0 42 42" fill="none" xmlns="http://www.w3.org/2000/svg">
<path d="M36.2462 24.125H28.1732C27.1035 24.125 26.0772 24.5487 25.319 25.3034C24.5608 26.0581 24.1324 27.0823 24.1274 28.1521V36.225C24.1274 37.298 24.5537 38.3271 25.3124 39.0859C26.0711 39.8446 27.1002 40.2709 28.1732 40.2709H36.2462C37.3156 40.2653 38.3393 39.8367 39.0935 39.0785C39.8478 38.3204 40.2712 37.2944 40.2712 36.225V28.1521C40.2712 27.0846 39.8471 26.0608 39.0923 25.306C38.3374 24.5512 37.3137 24.1271 36.2462 24.1271M13.8274 24.125H5.75449C4.68489 24.1311 3.66117 24.5602 2.90699 25.3187C2.1528 26.0772 1.72948 27.1033 1.72949 28.1729V36.2459C1.72949 37.3134 2.15355 38.3371 2.90839 39.092C3.66322 39.8468 4.687 40.2709 5.75449 40.2709H13.8274C14.8968 40.2709 15.9228 39.8475 16.6809 39.0932C17.439 38.339 17.8677 37.3153 17.8732 36.2459V28.1729C17.8732 27.0999 17.447 26.0708 16.6882 25.3121C15.9295 24.5534 14.9004 24.1271 13.8274 24.1271M13.8274 1.72919H5.75449C5.22592 1.72919 4.70253 1.8333 4.21419 2.03557C3.72586 2.23785 3.28214 2.53433 2.90839 2.90808C2.53463 3.28184 2.23815 3.72555 2.03588 4.21389C1.8336 4.70222 1.72949 5.22562 1.72949 5.75419V13.8271C1.72948 14.8965 2.15287 15.9225 2.90711 16.6806C3.66135 17.4387 4.68508 17.8674 5.75449 17.8729H13.8274C14.9004 17.8729 15.9295 17.4467 16.6882 16.6879C17.447 15.9292 17.8732 14.9001 17.8732 13.8271V5.75419C17.8677 4.68478 17.439 3.66105 16.6809 2.90681C15.9228 2.15257 14.8968 1.72917 13.8274 1.72919ZM36.2462 1.72919H28.1732C27.1038 1.72917 26.0779 2.15257 25.3197 2.90681C24.5616 3.66105 24.1329 4.68478 24.1274 5.75419V13.8271C24.128 14.9 24.5544 15.9287 25.313 16.6873C26.0716 17.446 27.1004 17.8724 28.1732 17.8729H36.2462C37.3156 17.8674 38.3393 17.4387 39.0935 16.6806C39.8478 15.9225 40.2712 14.8965 40.2712 13.8271V5.75419C40.2712 4.68669 39.8471 3.66292 39.0923 2.90808C38.3374 2.15325 37.3137 1.72919 36.2462 1.72919Z" stroke="white" stroke-width="3.125" stroke-linecap="round" stroke-linejoin="round"/>
</svg>
