<svg width="30" height="27" viewBox="0 0 30 27" fill="none" xmlns="http://www.w3.org/2000/svg">
<path fill-rule="evenodd" clip-rule="evenodd" d="M7.58559 3.04263L5.74295 6.6094H2.77426C2.13794 6.6094 1.52768 6.83185 1.07773 7.2278C0.627779 7.62376 0.375 8.16079 0.375 8.72075V11.3698L1.17955 11.7231C5.39944 13.5798 10.0526 14.5465 14.7706 14.5465C19.4886 14.5465 24.1417 13.5798 28.3616 11.7231L29.1662 11.3698V8.72075C29.1662 8.16079 28.9134 7.62376 28.4634 7.2278C28.0135 6.83185 27.4032 6.6094 26.7669 6.6094H23.7982L21.9556 3.04263C21.638 2.42739 21.1258 1.90563 20.4802 1.53971C19.8346 1.17379 19.083 0.979181 18.3151 0.979141H11.2261C10.4582 0.979181 9.70653 1.17379 9.06095 1.53971C8.41538 1.90563 7.90319 2.42739 7.58559 3.04263ZM11.2261 3.79427C11.0726 3.79431 10.9223 3.83322 10.7933 3.90634C10.6643 3.97947 10.5618 4.08374 10.4983 4.20669L9.25708 6.6094H20.2841L19.0429 4.20669C18.9793 4.08374 18.8769 3.97947 18.7479 3.90634C18.6188 3.83322 18.4686 3.79431 18.3151 3.79427H11.2261Z" fill="white"/>
<path d="M29.1662 14.5101C25.1547 16.1854 20.8054 17.1437 16.3701 17.3295V19.2775C16.3701 19.6509 16.2016 20.0089 15.9016 20.2728C15.6016 20.5368 15.1948 20.6851 14.7706 20.6851C14.3464 20.6851 13.9395 20.5368 13.6396 20.2728C13.3396 20.0089 13.1711 19.6509 13.1711 19.2775V17.3295C8.78842 17.1451 4.43775 16.2062 0.375 14.5101V24.204C0.375 24.764 0.627779 25.301 1.07773 25.697C1.52768 26.0929 2.13794 26.3154 2.77426 26.3154H26.7669C27.4032 26.3154 28.0135 26.0929 28.4634 25.697C28.9134 25.301 29.1662 24.764 29.1662 24.204V14.5101Z" fill="white"/>
</svg>
