<svg width="31" height="27" viewBox="0 0 31 27" fill="none" xmlns="http://www.w3.org/2000/svg">
<path d="M1.375 20.795L4.41161 19.7063M16.3329 15.3517L19.3695 14.263M6.66118 9.61135L7.89831 12.2835M12.8469 22.7743L14.084 25.4465M1.375 14.263L4.41161 15.3517M16.3329 19.7063L19.3695 20.795M14.084 9.61135L12.8469 12.2835M7.89831 22.7743L6.66118 25.4465M16.6701 11.9867L18.582 10.3042M26.0057 3.77214L27.8052 2.18863M16.6701 2.18863L18.582 3.77214M26.0057 10.3042L27.8052 11.9867M14.4208 7.03816H17.0075M27.5794 7.03816H30.1662M22.2935 0.110294V3.18659M22.2935 11.6897V14.766M16.8957 17.529C16.8957 20.6992 13.9752 23.2692 10.3726 23.2692C6.76999 23.2692 3.8495 20.6992 3.8495 17.529C3.8495 14.3587 6.76999 11.7888 10.3726 11.7888C13.9752 11.7888 16.8957 14.3587 16.8957 17.529ZM27.5803 7.03821C27.5803 9.6072 25.2137 11.6898 22.2943 11.6898C19.375 11.6898 17.0084 9.6072 17.0084 7.03821C17.0084 4.46922 19.375 2.38664 22.2943 2.38664C25.2137 2.38664 27.5803 4.46922 27.5803 7.03821Z" stroke="white" stroke-width="3.3872" stroke-miterlimit="10"/>
</svg>
