<svg width="30" height="27" viewBox="0 0 30 27" fill="none" xmlns="http://www.w3.org/2000/svg">
<path fill-rule="evenodd" clip-rule="evenodd" d="M25.8295 5.31607L26.4347 7.62218C26.6002 8.25281 26.4006 8.92125 25.9267 9.35043L25.8452 9.4197C25.0387 10.0626 24.642 11.1576 24.9235 12.2303C25.1969 13.272 26.0346 14.0055 27.0109 14.1797L27.1241 14.1973C27.7737 14.2835 28.3082 14.7613 28.4777 15.4073L29.094 17.7556C29.3945 18.9007 28.729 20.0776 27.6075 20.3844L6.28639 26.2175C5.16493 26.5243 4.01221 25.8448 3.71171 24.6997L3.13189 22.4903C2.9553 21.8174 3.16021 21.1036 3.65638 20.6346L3.74176 20.5587C4.51739 19.9114 4.89378 18.8377 4.61766 17.7855C4.34109 16.7317 3.48696 15.9933 2.49614 15.8302C1.78894 15.7139 1.21456 15.1844 1.02916 14.4779L0.447153 12.2602C0.146658 11.1151 0.812183 9.9382 1.93364 9.63139L23.2548 3.79834C24.3762 3.49153 25.529 4.17104 25.8295 5.31607ZM23.6403 5.64186L2.50255 11.4247C2.2107 11.5046 2.0375 11.8109 2.1157 12.1089L2.5315 13.6932C4.34496 14.0664 5.82565 15.4546 6.31548 17.3211C6.80527 19.1874 6.20294 21.1455 4.81503 22.3946L5.23082 23.979C5.30902 24.277 5.60901 24.4538 5.90086 24.374L27.0386 18.5911C27.3305 18.5112 27.5037 18.2049 27.4255 17.9069L27.0097 16.3226C25.1996 15.9504 23.7163 14.5641 23.2257 12.6948C22.7354 10.8264 23.34 8.86844 24.7261 7.62117L24.3104 6.03684C24.2322 5.73886 23.9322 5.56202 23.6403 5.64186ZM22.9658 17.2101C23.1912 18.0689 22.692 18.9516 21.851 19.1817C21.0099 19.4118 20.1453 18.9021 19.9199 18.0434C19.6946 17.1846 20.1937 16.3019 21.0348 16.0718C21.8759 15.8417 22.7404 16.3513 22.9658 17.2101ZM21.8776 13.0636C22.103 13.9223 21.6039 14.805 20.7628 15.0351C19.9217 15.2653 19.0571 14.7556 18.8318 13.8968C18.6064 13.0381 19.1055 12.1554 19.9466 11.9253C20.7877 11.6952 21.6523 12.2048 21.8776 13.0636ZM20.7894 8.91704C21.0148 9.77581 20.5157 10.6585 19.6746 10.8886C18.8335 11.1187 17.9689 10.6091 17.7436 9.75033C17.5182 8.89156 18.0173 8.00884 18.8584 7.77874C19.6995 7.54863 20.5641 8.05826 20.7894 8.91704ZM15.3427 1.87037L16.6839 3.82606C16.7036 3.85491 16.7225 3.88423 16.7403 3.91398L3.90879 7.42444L12.4148 1.34327C13.3659 0.663335 14.6767 0.899327 15.3427 1.87037Z" fill="white"/>
</svg>
